<?xml version="1.0" encoding="UTF-8"?>
<svg id="Ebene_1" xmlns="http://www.w3.org/2000/svg" version="1.1" viewBox="0 0 6716.67 953.7">
  <!-- Generator: Adobe Illustrator 29.7.1, SVG Export Plug-In . SVG Version: 2.1.1 Build 8)  -->
  <defs>
    <style>
      .st0 {
        fill: #fff;
      }
    </style>
  </defs>
  <path class="st0" d="M0,476.86c0-72.25,12.75-137.69,38.25-196.34s60.34-108.8,104.55-150.45,96.27-73.73,156.19-96.27S422.88,0,490.88,0s135.58,11.27,197.62,33.8,113.91,52.91,155.56,91.16l-186.15,224.4c-17-22.09-38.25-38.89-63.75-50.36s-53.98-17.22-85.42-17.22c-25.5,0-49.31,4.47-71.41,13.39s-41.44,21.88-58.02,38.88-29.55,37.62-38.89,61.84c-9.34,24.23-14.02,51.22-14.02,80.97s4.88,56.31,14.66,79.69,22.95,43.56,39.53,60.56c16.56,17,35.91,29.97,58,38.89s45.48,13.38,70.14,13.38c34.84,0,64.8-7.22,89.88-21.67,25.08-14.44,44.84-31.44,59.3-51l186.16,223.12c-40.81,40.81-90.95,73.33-150.45,97.55-59.5,24.2-127.08,36.33-202.73,36.33-68,0-131.97-11.48-191.89-34.42s-112-55.46-156.2-97.54-79.05-92.23-104.55-150.45S0,548.27,0,476.86Z"/>
  <path class="st0" d="M870.82,471.75c0-72.25,12.75-137.48,38.25-195.7s60.56-107.73,105.19-148.55c44.62-40.8,97.53-72.25,158.73-94.34S1300.5,0,1371.9,0s137.7,11.06,198.91,33.16c61.19,22.09,114.31,53.55,159.38,94.34,45.05,40.81,80.33,90.33,105.83,148.55,25.5,58.22,38.25,123.45,38.25,195.7s-12.75,138.12-38.25,197.62-60.78,110.3-105.83,152.38c-45.06,42.08-98.19,74.59-159.38,97.53-61.2,22.94-127.5,34.42-198.91,34.42s-137.7-11.48-198.91-34.42-114.11-55.45-158.73-97.53-79.69-92.88-105.19-152.38-38.25-125.37-38.25-197.62ZM1193.4,471.75c0,29.75,4.45,56.95,13.39,81.61,8.92,24.66,21.25,45.91,36.97,63.75s34.64,31.66,56.73,41.44,45.91,14.66,71.41,14.66,49.08-4.88,70.77-14.66c21.67-9.78,40.58-23.59,56.73-41.44s28.69-39.09,37.61-63.75,13.39-51.86,13.39-81.61-4.47-55.45-13.39-79.67-21.45-44.62-37.61-61.2-35.06-29.55-56.73-38.89c-21.69-9.34-45.27-14.03-70.77-14.03s-49.31,4.69-71.41,14.03-41.02,22.31-56.73,38.89-28.05,36.98-36.97,61.2c-8.94,24.22-13.39,50.78-13.39,79.67Z"/>
  <path class="st0" d="M2265.67,418.2l14.03,510h-283.05V25.5h396.52l163.2,485.78h6.38l141.53-485.78h409.27v902.7h-294.52l8.92-507.45-7.66-1.27-168.29,508.72h-214.2l-165.75-510h-6.38Z"/>
  <path class="st0" d="M3566.16,374.86h275.41v247.34h-274.12v306h-298.35V25.5h609.44v253.73h-312.38v95.63h0Z"/>
  <path class="st0" d="M3983.08,471.75c0-72.25,12.75-137.48,38.25-195.7s60.56-107.73,105.19-148.55c44.62-40.8,97.53-72.25,158.73-94.34S4412.75,0,4484.16,0s137.7,11.06,198.91,33.16c61.19,22.09,114.31,53.55,159.38,94.34,45.05,40.81,80.33,90.33,105.83,148.55,25.5,58.22,38.25,123.45,38.25,195.7s-12.75,138.12-38.25,197.62-60.78,110.3-105.83,152.38c-45.06,42.08-98.19,74.59-159.38,97.53-61.2,22.94-127.5,34.42-198.91,34.42s-137.7-11.48-198.91-34.42-114.11-55.45-158.73-97.53-79.69-92.88-105.19-152.38-38.25-125.37-38.25-197.62ZM4305.66,471.75c0,29.75,4.45,56.95,13.39,81.61,8.92,24.66,21.25,45.91,36.97,63.75s34.64,31.66,56.73,41.44,45.91,14.66,71.41,14.66,49.08-4.88,70.77-14.66c21.67-9.78,40.58-23.59,56.73-41.44s28.69-39.09,37.61-63.75,13.39-51.86,13.39-81.61-4.47-55.45-13.39-79.67-21.45-44.62-37.61-61.2-35.06-29.55-56.73-38.89c-21.69-9.34-45.27-14.03-70.77-14.03s-49.31,4.69-71.41,14.03-41.02,22.31-56.73,38.89-28.05,36.98-36.97,61.2c-8.94,24.22-13.39,50.78-13.39,79.67Z"/>
  <path class="st0" d="M5114.01,25.5h388.88c44.19,0,88.17,4.47,131.95,13.39,43.78,8.94,82.88,24.66,117.3,47.19,34.42,22.53,62.27,52.7,83.52,90.52,21.25,37.83,31.88,85.22,31.88,142.16s-13.61,103.92-40.8,146c-27.2,42.08-66.3,74.59-117.3,97.53l229.5,365.92h-349.36l-173.39-322.58h-8.92v322.57h-293.25V25.5h-.01ZM5404.7,406.73h59.94c10.19,0,21.45-.84,33.78-2.55,12.31-1.7,23.8-5.31,34.42-10.84s19.55-13.17,26.77-22.95c7.22-9.77,10.84-22.73,10.84-38.89s-2.98-28.89-8.92-38.23c-5.95-9.34-13.61-16.36-22.95-21.05-9.34-4.67-19.55-7.64-30.59-8.92-11.06-1.28-21.25-1.92-30.59-1.92h-72.69v145.35h0Z"/>
  <path class="st0" d="M6494.81,928.2h-303.44V281.78h-221.86V25.5h747.16v256.28h-221.86v646.42h0Z"/>
</svg>