<?xml version="1.0" encoding="utf-8"?>
<!-- Generator: Adobe Illustrator 24.3.0, SVG Export Plug-In . SVG Version: 6.00 Build 0)  -->
<svg version="1.1" id="Ebene_1" xmlns="http://www.w3.org/2000/svg" xmlns:xlink="http://www.w3.org/1999/xlink" x="0px" y="0px"
	 viewBox="0 0 6716.67 953.7" style="enable-background:new 0 0 6716.67 953.7;" xml:space="preserve">
<style type="text/css">
	.st0{fill:#010202;}
</style>
<g>
	<path class="st0" d="M0,476.86c0-72.25,12.75-137.69,38.25-196.34s60.34-108.8,104.55-150.45s96.27-73.73,156.19-96.27
		S422.88,0,490.88,0c69.7,0,135.58,11.27,197.62,33.8s113.91,52.91,155.56,91.16L657.91,349.36c-17-22.09-38.25-38.89-63.75-50.36
		s-53.98-17.22-85.42-17.22c-25.5,0-49.31,4.47-71.41,13.39s-41.44,21.88-58.02,38.88s-29.55,37.62-38.89,61.84
		c-9.34,24.23-14.02,51.22-14.02,80.97s4.88,56.31,14.66,79.69s22.95,43.56,39.53,60.56c16.56,17,35.91,29.97,58,38.89
		s45.48,13.38,70.14,13.38c34.84,0,64.8-7.22,89.88-21.67c25.08-14.44,44.84-31.44,59.3-51l186.16,223.12
		c-40.81,40.81-90.95,73.33-150.45,97.55c-59.5,24.2-127.08,36.33-202.73,36.33c-68,0-131.97-11.48-191.89-34.42
		S187,863.83,142.8,821.75S63.75,729.52,38.25,671.3S0,548.27,0,476.86z"/>
	<path class="st0" d="M870.82,471.75c0-72.25,12.75-137.48,38.25-195.7s60.56-107.73,105.19-148.55
		c44.62-40.8,97.53-72.25,158.73-94.34S1300.5,0,1371.9,0s137.7,11.06,198.91,33.16c61.19,22.09,114.31,53.55,159.38,94.34
		c45.05,40.81,80.33,90.33,105.83,148.55s38.25,123.45,38.25,195.7s-12.75,138.12-38.25,197.62s-60.78,110.3-105.83,152.38
		c-45.06,42.08-98.19,74.59-159.38,97.53c-61.2,22.94-127.5,34.42-198.91,34.42s-137.7-11.48-198.91-34.42
		s-114.11-55.45-158.73-97.53s-79.69-92.88-105.19-152.38S870.82,544,870.82,471.75z M1193.4,471.75c0,29.75,4.45,56.95,13.39,81.61
		c8.92,24.66,21.25,45.91,36.97,63.75s34.64,31.66,56.73,41.44s45.91,14.66,71.41,14.66s49.08-4.88,70.77-14.66
		c21.67-9.78,40.58-23.59,56.73-41.44s28.69-39.09,37.61-63.75s13.39-51.86,13.39-81.61c0-28.89-4.47-55.45-13.39-79.67
		s-21.45-44.62-37.61-61.2s-35.06-29.55-56.73-38.89c-21.69-9.34-45.27-14.03-70.77-14.03s-49.31,4.69-71.41,14.03
		s-41.02,22.31-56.73,38.89s-28.05,36.98-36.97,61.2C1197.85,416.3,1193.4,442.86,1193.4,471.75z"/>
	<path class="st0" d="M2265.67,418.2l14.03,510h-283.05V25.5h396.52l163.2,485.78h6.38L2704.28,25.5h409.27v902.7h-294.52
		l8.92-507.45l-7.66-1.27L2652,928.2h-214.2l-165.75-510H2265.67z"/>
	<path class="st0" d="M3566.16,374.86h275.41V622.2h-274.12v306H3269.1V25.5h609.44v253.73h-312.38V374.86z"/>
	<path class="st0" d="M3983.08,471.75c0-72.25,12.75-137.48,38.25-195.7s60.56-107.73,105.19-148.55
		c44.62-40.8,97.53-72.25,158.73-94.34S4412.75,0,4484.16,0s137.7,11.06,198.91,33.16c61.19,22.09,114.31,53.55,159.38,94.34
		c45.05,40.81,80.33,90.33,105.83,148.55s38.25,123.45,38.25,195.7s-12.75,138.12-38.25,197.62s-60.78,110.3-105.83,152.38
		c-45.06,42.08-98.19,74.59-159.38,97.53c-61.2,22.94-127.5,34.42-198.91,34.42s-137.7-11.48-198.91-34.42
		s-114.11-55.45-158.73-97.53s-79.69-92.88-105.19-152.38S3983.08,544,3983.08,471.75z M4305.66,471.75
		c0,29.75,4.45,56.95,13.39,81.61c8.92,24.66,21.25,45.91,36.97,63.75s34.64,31.66,56.73,41.44s45.91,14.66,71.41,14.66
		s49.08-4.88,70.77-14.66c21.67-9.78,40.58-23.59,56.73-41.44s28.69-39.09,37.61-63.75s13.39-51.86,13.39-81.61
		c0-28.89-4.47-55.45-13.39-79.67s-21.45-44.62-37.61-61.2s-35.06-29.55-56.73-38.89c-21.69-9.34-45.27-14.03-70.77-14.03
		s-49.31,4.69-71.41,14.03s-41.02,22.31-56.73,38.89s-28.05,36.98-36.97,61.2C4310.11,416.3,4305.66,442.86,4305.66,471.75z"/>
	<path class="st0" d="M5114.01,25.5h388.88c44.19,0,88.17,4.47,131.95,13.39c43.78,8.94,82.88,24.66,117.3,47.19
		s62.27,52.7,83.52,90.52c21.25,37.83,31.88,85.22,31.88,142.16c0,55.25-13.61,103.92-40.8,146c-27.2,42.08-66.3,74.59-117.3,97.53
		l229.5,365.92h-349.36l-173.39-322.58h-8.92V928.2h-293.25V25.5z M5404.7,406.73h59.94c10.19,0,21.45-0.84,33.78-2.55
		c12.31-1.7,23.8-5.31,34.42-10.84s19.55-13.17,26.77-22.95c7.22-9.77,10.84-22.73,10.84-38.89c0-16.14-2.98-28.89-8.92-38.23
		c-5.95-9.34-13.61-16.36-22.95-21.05c-9.34-4.67-19.55-7.64-30.59-8.92c-11.06-1.28-21.25-1.92-30.59-1.92h-72.69V406.73z"/>
	<path class="st0" d="M6494.81,928.2h-303.44V281.78h-221.86V25.5h747.16v256.28h-221.86V928.2z"/>
</g>
</svg>
